<svg width="40" height="40" viewBox="0 0 40 40" fill="none" xmlns="http://www.w3.org/2000/svg">
<path fill-rule="evenodd" clip-rule="evenodd" d="M17.3265 33.439L17.3265 3.77287C17.3265 2.24146 18.568 1 20.0994 1C21.6308 1 22.8723 2.24146 22.8723 3.77287L22.8723 33.439H25.6375C27.1732 33.439 28.418 34.6838 28.418 36.2195C28.418 37.7551 27.1732 39 25.6375 39H14.5612C13.0256 39 11.7808 37.7551 11.7808 36.2195C11.7808 34.6838 13.0256 33.439 14.5612 33.439H17.3265Z" fill="#FFBE3C"/>
<path fill-rule="evenodd" clip-rule="evenodd" d="M20.0828 9.94676L10.92 13.1426C9.92219 13.4906 8.82971 13.4448 7.86432 13.0146L4.37283 11.4585C3.20664 10.9388 2.68143 9.56952 3.19973 8.40013C3.71804 7.23074 5.08359 6.70408 6.24978 7.22381L9.57431 8.70544L18.7198 5.51567C19.6236 5.20042 20.6083 5.20735 21.5076 5.53528L30.228 8.71501L34.0305 7.18983C35.2154 6.71457 36.5602 7.29248 37.0341 8.48064C37.5081 9.6688 36.9317 11.0173 35.7468 11.4925L31.7805 13.0834C30.8312 13.4642 29.7753 13.481 28.8144 13.1306L20.0828 9.94676Z" fill="#FFAE0B"/>
<path fill-rule="evenodd" clip-rule="evenodd" d="M9.18936 14.9026C7.88457 14.9026 6.72941 15.7459 6.33194 16.9887L3.56238 25.6483C3.31174 26.432 3.54417 27.2902 4.15571 27.839C5.62601 29.1586 7.57265 29.9635 9.7018 29.9635C11.831 29.9635 13.7776 29.1586 15.2479 27.839C15.8594 27.2902 16.0919 26.432 15.8412 25.6483L13.0717 16.9887C12.6742 15.7459 11.519 14.9026 10.2142 14.9026H9.18936ZM29.9853 14.9026C28.6805 14.9026 27.5253 15.7459 27.1278 16.9887L24.3583 25.6483C24.1076 26.432 24.3401 27.2902 24.9516 27.839C26.4219 29.1586 28.3686 29.9635 30.4977 29.9635C32.6269 29.9635 34.5735 29.1586 36.0438 27.839C36.6553 27.2902 36.8878 26.432 36.6371 25.6483L33.8676 16.9887C33.4701 15.7459 32.3149 14.9026 31.0102 14.9026H29.9853Z" fill="#FF9900"/>
</svg>
