<svg width="40" height="40" viewBox="0 0 40 40" fill="none" xmlns="http://www.w3.org/2000/svg">
<path d="M2 11H38V34C38 36.2091 36.2091 38 34 38H6C3.79086 38 2 36.2091 2 34V11Z" fill="#FFAE0B"/>
<path d="M5.375 13.25H34.625V32.625C34.625 33.7296 33.7296 34.625 32.625 34.625H7.375C6.27043 34.625 5.375 33.7296 5.375 32.625V13.25Z" fill="#FF9900"/>
<path d="M2 6C2 3.79086 3.79086 2 6 2H34C36.2091 2 38 3.79086 38 6V11H2V6Z" fill="#FFBE3C"/>
<path d="M24.6099 27.4638C24.6099 27.2146 24.7477 26.9859 24.9679 26.8694L28.6372 24.929V24.8288L24.9679 22.8884C24.7477 22.7719 24.6099 22.5432 24.6099 22.294C24.6099 21.7858 25.152 21.4613 25.5999 21.7014L29.4625 23.7721C29.8704 23.9908 30.125 24.4161 30.125 24.8789C30.125 25.3417 29.8704 25.767 29.4625 25.9857L25.5999 28.0564C25.152 28.2965 24.6099 27.972 24.6099 27.4638Z" fill="white"/>
<path d="M18.1488 30.125C17.6667 30.125 17.333 29.6434 17.5023 29.192L21.204 19.323C21.3051 19.0535 21.5627 18.875 21.8505 18.875C22.3327 18.875 22.6664 19.3566 22.4971 19.808L18.7954 29.677C18.6943 29.9465 18.4367 30.125 18.1488 30.125Z" fill="white"/>
<path d="M10.5375 25.9857C10.1296 25.767 9.875 25.3417 9.875 24.8789C9.875 24.4161 10.1296 23.9908 10.5375 23.7721L14.4001 21.7014C14.848 21.4613 15.3901 21.7858 15.3901 22.294C15.3901 22.5432 15.2523 22.7719 15.0321 22.8884L11.3628 24.8288V24.929L15.0321 26.8694C15.2523 26.9859 15.3901 27.2146 15.3901 27.4638C15.3901 27.972 14.848 28.2965 14.4001 28.0564L10.5375 25.9857Z" fill="white"/>
<circle cx="8.1875" cy="7.0625" r="1.6875" fill="#FF9900"/>
<circle cx="13.8125" cy="7.0625" r="1.6875" fill="#FF9900"/>
</svg>
