<svg width="40" height="40" viewBox="0 0 40 40" fill="none" xmlns="http://www.w3.org/2000/svg">
<path d="M1 10.3778C1 8.51228 2.51228 7 4.37778 7H35.6222C37.4877 7 39 8.51228 39 10.3778V28.9556C39 30.8211 37.4877 32.3333 35.6222 32.3333H4.37778C2.51228 32.3333 1 30.8211 1 28.9556V10.3778Z" fill="#FFBE3C"/>
<path d="M4.37781 11.2221C4.37781 10.7558 4.75588 10.3777 5.22225 10.3777H34.7778C35.2442 10.3777 35.6223 10.7558 35.6223 11.2221V28.111C35.6223 28.5774 35.2442 28.9555 34.7778 28.9555H5.22225C4.75588 28.9555 4.37781 28.5774 4.37781 28.111V11.2221Z" fill="#FF9900"/>
<path d="M27.1778 19.6655C27.1778 15.9352 24.1532 12.9111 20.4222 12.9111C16.6913 12.9111 13.6667 15.9352 13.6667 19.6655C13.6667 23.3959 16.6913 26.4199 20.4222 26.4199C24.1532 26.4199 27.1778 23.3959 27.1778 19.6655Z" fill="#FFAE0B"/>
<path fill-rule="evenodd" clip-rule="evenodd" d="M23.362 18.1167C22.6836 16.3732 21.0998 15.7548 19.6513 15.9001C19.4975 15.9156 19.3459 15.9397 19.196 15.9708C18.9434 15.6639 18.5657 15.4339 18.1469 15.5287C18.3887 15.6223 18.4156 15.9001 18.4332 16.0828C18.4352 16.1032 18.437 16.1225 18.4391 16.1401C18.1889 16.0283 17.9402 15.9972 17.5221 16.0764C17.7055 16.1044 17.8741 16.238 17.9449 16.4315C16.4202 17.2566 15.3735 18.9037 15.5506 20.6697C15.56 20.7591 15.5724 20.8469 15.5864 20.9339C15.058 20.9696 14.4666 21.1033 13.8713 21.3216C14.6096 24.2523 17.2626 26.4215 20.4222 26.4215C21.995 26.4215 23.442 25.8839 24.5905 24.9834C24.6664 23.9039 24.5753 22.7324 24.273 21.4741C24.356 21.469 24.4408 21.4588 24.5275 21.4428C24.7925 21.3938 25.5773 21.205 25.5773 21.205C25.6838 21.1763 25.7219 21.0458 25.648 20.9642C25.3294 20.6153 24.6541 19.8664 24.6401 19.7887L25.2175 18.3995C25.2641 18.2868 25.1623 18.1695 25.0442 18.2006C25.0442 18.2006 24.0503 18.4204 23.7193 18.4919C23.6461 18.5077 23.5761 18.5281 23.5092 18.5524C23.4589 18.3896 23.4093 18.2425 23.3612 18.119L23.362 18.1167ZM21.9933 19.5375C21.9933 20.0434 21.5831 20.4535 21.0771 20.4535C20.5711 20.4535 20.1609 20.0434 20.1609 19.5375C20.1609 19.0316 20.5711 18.6215 21.0771 18.6215C21.5831 18.6215 21.9933 19.0316 21.9933 19.5375Z" fill="white"/>
</svg>
