<svg width="40" height="40" viewBox="0 0 40 40" fill="none" xmlns="http://www.w3.org/2000/svg">
<path fill-rule="evenodd" clip-rule="evenodd" d="M16.6 4C13.5072 4 11 6.63257 11 9.88V16.6H14.2V10.3C14.2 8.90824 15.2745 7.78 16.6 7.78H23.4C24.7255 7.78 25.8 8.90824 25.8 10.3V16.6H29V9.88C29 6.63257 26.4928 4 23.4 4H16.6Z" fill="#FFBE3C"/>
<rect x="1" y="13" width="38" height="24" rx="4" fill="#FFBE3C"/>
<rect x="1" y="13" width="38" height="24" rx="4" fill="#FFAE0B"/>
<circle cx="20" cy="25" r="8" fill="white"/>
<path fill-rule="evenodd" clip-rule="evenodd" d="M21.6667 20H18.3333V23.3333L15 23.3333V26.6667H18.3333V30H21.6667V26.6667H25V23.3333L21.6667 23.3333V20Z" fill="#FF9900"/>
</svg>
