<svg width="40" height="40" viewBox="0 0 40 40" fill="none" xmlns="http://www.w3.org/2000/svg">
<path d="M1 7C1 4.79086 2.79086 3 5 3H35C37.2091 3 39 4.79086 39 7V32.25C39 34.4591 37.2091 36.25 35 36.25H5C2.79086 36.25 1 34.4591 1 32.25V7Z" fill="#FFBE3C"/>
<circle cx="19.8812" cy="6.68115" r="1.78125" fill="#FF9900"/>
<path d="M4.80048 11.125C4.80048 10.5727 5.24819 10.125 5.80048 10.125H34.6755C35.2278 10.125 35.6755 10.5727 35.6755 11.125V31.6875C35.6755 32.2398 35.2278 32.6875 34.6755 32.6875H5.80048C5.24819 32.6875 4.80048 32.2398 4.80048 31.6875V11.125Z" fill="#FF9900"/>
<path fill-rule="evenodd" clip-rule="evenodd" d="M14.5583 14.9946C14.2339 14.9677 13.963 15.2386 13.9899 15.563L14.6455 23.4747C14.6455 23.4747 16.5861 23.774 17.7373 24.2466C18.9124 24.729 20.5314 25.9118 20.5314 25.9118L22.3055 24.1377L19.9945 21.8266C19.3355 22.1243 18.5331 22.0024 17.9915 21.4608C17.2926 20.7619 17.2926 19.6287 17.9915 18.9297C18.6905 18.2308 19.8237 18.2308 20.5226 18.9297C21.0644 19.4716 21.1862 20.2743 20.888 20.9335L23.1989 23.2444L24.9071 21.5361C24.9071 21.5361 23.7243 19.9171 23.2419 18.7421C22.7692 17.5908 22.4699 15.6502 22.4699 15.6502L14.5583 14.9946Z" fill="white"/>
<rect x="21.7864" y="27.1929" width="6.22432" height="2.76637" transform="rotate(-45 21.7864 27.1929)" fill="white"/>
</svg>
