<svg width="40" height="40" viewBox="0 0 40 40" fill="none" xmlns="http://www.w3.org/2000/svg">
<path d="M38 20C38 23.5601 36.9443 27.0402 34.9665 30.0003C32.9886 32.9604 30.1774 35.2675 26.8883 36.6298C23.5992 37.9922 19.98 38.3487 16.4884 37.6541C12.9967 36.9596 9.78942 35.2453 7.27208 32.7279C4.75473 30.2106 3.0404 27.0033 2.34586 23.5116C1.65133 20.02 2.00779 16.4008 3.37017 13.1117C4.73255 9.82263 7.03965 7.01141 9.99974 5.03355C12.9598 3.05568 16.4399 2 20 2V19C20 19.5523 20.4477 20 21 20H38Z" fill="#FFAE0B"/>
<path d="M22.8125 2C24.807 2 26.7819 2.39284 28.6245 3.15608C30.4671 3.91932 32.1414 5.03803 33.5517 6.44832C34.962 7.85861 36.0807 9.53286 36.8439 11.3755C37.6072 13.2181 38 15.1931 38 17.1875L23.8125 17.1875C23.2602 17.1875 22.8125 16.7398 22.8125 16.1875V2Z" fill="#FF9900"/>
</svg>
