<svg width="40" height="40" viewBox="0 0 40 40" fill="none" xmlns="http://www.w3.org/2000/svg">
<path fill-rule="evenodd" clip-rule="evenodd" d="M16.6 2C13.5072 2 11 4.63257 11 7.88V14.6H14.2V8.3C14.2 6.90824 15.2745 5.78 16.6 5.78H23.4C24.7255 5.78 25.8 6.90824 25.8 8.3V14.6H29V7.88C29 4.63257 26.4928 2 23.4 2H16.6Z" fill="#FFAE0B"/>
<path d="M2 29.8999H38V33.9999C38 36.209 36.2091 37.9999 34 37.9999H6C3.79086 37.9999 2 36.209 2 33.9999V29.8999Z" fill="#FF9900"/>
<path d="M2 14.1001C2 11.891 3.79086 10.1001 6 10.1001H34C36.2091 10.1001 38 11.891 38 14.1001V26.3001H2V14.1001Z" fill="#FFBE3C"/>
<circle cx="20" cy="18.1999" r="1.8" fill="white"/>
</svg>
