<svg width="40" height="40" viewBox="0 0 40 40" fill="none" xmlns="http://www.w3.org/2000/svg">
<path d="M17.767 2.54132C19.1824 1.81956 20.8176 1.81956 22.233 2.54132L37.2381 10.1928C38.2539 10.7108 38.2539 12.2892 37.2381 12.8072L22.233 20.4587C20.8176 21.1804 19.1824 21.1804 17.767 20.4587L2.76185 12.8072C1.74605 12.2892 1.74605 10.7108 2.76185 10.1928L17.767 2.54132Z" fill="#FFAE0B"/>
<path fill-rule="evenodd" clip-rule="evenodd" d="M5.47929 17.52C5.47929 17.52 5.47898 23.5426 5.47901 26.12C5.47903 28.1296 5.47929 31.2658 5.47929 31.2658L18.1195 37.5549C19.3119 38.1484 20.6895 38.1484 21.8813 37.5549L34.5216 31.2658L34.5213 26.12L34.5216 17.52L21.8813 24.0745C20.6895 24.6679 19.3119 24.6679 18.1195 24.0745L5.47929 17.52Z" fill="#FFBE3C"/>
<path fill-rule="evenodd" clip-rule="evenodd" d="M21.935 10.1784C22.1677 11.2469 21.4902 12.3017 20.4216 12.5344C17.9968 13.0626 15.4713 13.8377 13.5293 14.9062C13.0691 15.1595 12.9561 15.3733 12.8886 15.565C12.7774 15.8809 12.7396 16.3271 12.7396 17.1969C12.7396 20.9154 12.8216 18.0782 12.9041 21.82L12.9043 21.8293C12.9867 25.5609 13.0696 24.6517 13.0696 28.42C13.0696 29.5136 12.1831 30.4 11.0895 30.4C9.99587 30.4 9.10932 29.5136 9.10932 28.42C9.10932 24.6995 9.02738 25.6493 8.94479 21.9074L8.94452 21.8951C8.86218 18.1646 8.7793 20.9622 8.7793 17.1969C8.7793 16.3806 8.78752 15.2881 9.15309 14.2499C9.56238 13.0875 10.357 12.1318 11.6199 11.4369C14.0444 10.1028 16.9933 9.22829 19.5787 8.66516C20.6473 8.43243 21.7022 9.10993 21.935 10.1784Z" fill="#FF9900"/>
</svg>
