<svg width="21" height="20" viewBox="0 0 21 20" fill="none" xmlns="http://www.w3.org/2000/svg">
<path d="M7.75 3C7.19772 3 6.75 3.44772 6.75 4C6.75 4.55228 7.19772 5 7.75 5H13.75C14.3023 5 14.75 4.55228 14.75 4C14.75 3.44772 14.3023 3 13.75 3H7.75Z" fill="#E4E3E1"/>
<path d="M4.75 7C4.75 6.44772 5.19772 6 5.75 6H15.75C16.3023 6 16.75 6.44772 16.75 7C16.75 7.55228 16.3023 8 15.75 8H5.75C5.19772 8 4.75 7.55228 4.75 7Z" fill="#E4E3E1"/>
<path d="M2.75 11C2.75 9.89543 3.64543 9 4.75 9H16.75C17.8546 9 18.75 9.89543 18.75 11V15C18.75 16.1046 17.8546 17 16.75 17H4.75C3.64543 17 2.75 16.1046 2.75 15V11Z" fill="#E4E3E1"/>
</svg>
