<svg width="32" height="29" viewBox="0 0 32 29" fill="none" xmlns="http://www.w3.org/2000/svg">
<path fill-rule="evenodd" clip-rule="evenodd" d="M28 0C30.2091 0 32 1.79086 32 4V18C32 20.2091 30.2091 22 28 22H24.7474L23.2407 27.965C23.0346 28.7811 21.974 28.993 21.4701 28.3188L16.7474 22H4C1.79086 22 0 20.2091 0 18V4C0 1.79086 1.79086 0 4 0H28ZM10.2855 11.428C10.2855 12.6903 9.26211 13.7137 7.99974 13.7137C6.73738 13.7137 5.71403 12.6903 5.71403 11.428C5.71403 10.1656 6.73738 9.14225 7.99974 9.14225C9.26211 9.14225 10.2855 10.1656 10.2855 11.428ZM15.9997 13.7137C17.2621 13.7137 18.2855 12.6903 18.2855 11.428C18.2855 10.1656 17.2621 9.14225 15.9997 9.14225C14.7374 9.14225 13.714 10.1656 13.714 11.428C13.714 12.6903 14.7374 13.7137 15.9997 13.7137ZM26.2855 11.428C26.2855 12.6903 25.2621 13.7137 23.9997 13.7137C22.7374 13.7137 21.714 12.6903 21.714 11.428C21.714 10.1656 22.7374 9.14225 23.9997 9.14225C25.2621 9.14225 26.2855 10.1656 26.2855 11.428Z" fill="white"/>
</svg>
