<svg width="41" height="40" viewBox="0 0 41 40" fill="none" xmlns="http://www.w3.org/2000/svg">
<path fill-rule="evenodd" clip-rule="evenodd" d="M13.3333 7C11.4924 7 10 8.49238 10 10.3333V30.3333C10 32.1743 11.4924 33.6667 13.3333 33.6667H26.6667C28.5076 33.6667 30 32.1743 30 30.3333V10.3333C30 8.49238 28.5076 7 26.6667 7H13.3333ZM15 12C14.0795 12 13.3333 12.7462 13.3333 13.6667C13.3333 14.5871 14.0795 15.3333 15 15.3333H25C25.9205 15.3333 26.6667 14.5871 26.6667 13.6667C26.6667 12.7462 25.9205 12 25 12H15ZM13.3333 20.3333C13.3333 19.4129 14.0795 18.6667 15 18.6667H21.6667C22.5871 18.6667 23.3333 19.4129 23.3333 20.3333C23.3333 21.2538 22.5871 22 21.6667 22H15C14.0795 22 13.3333 21.2538 13.3333 20.3333ZM20 32C20.9205 32 21.6667 31.2538 21.6667 30.3333C21.6667 29.4129 20.9205 28.6667 20 28.6667C19.0795 28.6667 18.3333 29.4129 18.3333 30.3333C18.3333 31.2538 19.0795 32 20 32Z" fill="#FFAE0B"/>
</svg>
