<svg width="32" height="32" viewBox="0 0 32 32" fill="none" xmlns="http://www.w3.org/2000/svg">
<path d="M27.8587 17.6054C28.8919 16.5777 29.5264 15.173 29.2805 13.7403C28.2014 7.45287 22.6973 2.66699 16.0695 2.66699C8.66736 2.66699 2.66675 8.63653 2.66675 16.0003C2.66675 23.3641 8.66736 29.3337 16.0695 29.3337C17.0353 29.3337 17.9771 29.2321 18.885 29.039C19.7673 28.8514 20.4398 28.1697 20.7361 27.3218L20.7774 27.2035C21.1665 26.0897 20.7869 24.8534 19.8386 24.1459L18.4018 23.0738C17.1709 22.1554 17.043 20.3653 18.131 19.2829C18.9211 18.4969 20.0898 18.2223 21.1498 18.5739L22.2215 18.9293C24.201 19.5857 26.3834 19.0731 27.8587 17.6054ZM24.1111 10.0003C24.1111 11.1049 23.211 12.0003 22.1007 12.0003C20.9905 12.0003 20.0903 11.1049 20.0903 10.0003C20.0903 8.89575 20.9905 8.00033 22.1007 8.00033C23.211 8.00033 24.1111 8.89575 24.1111 10.0003ZM16.0695 9.33366C14.9591 9.33366 14.0591 8.43823 14.0591 7.33366C14.0591 6.22909 14.9591 5.33366 16.0695 5.33366C17.1798 5.33366 18.0799 6.22909 18.0799 7.33366C18.0799 8.43823 17.1798 9.33366 16.0695 9.33366ZM12.0487 10.0003C12.0487 11.1049 11.1486 12.0003 10.0383 12.0003C8.92795 12.0003 8.02785 11.1049 8.02785 10.0003C8.02785 8.89575 8.92795 8.00033 10.0383 8.00033C11.1486 8.00033 12.0487 8.89575 12.0487 10.0003ZM7.35771 18.0003C6.24739 18.0003 5.34729 17.1049 5.34729 16.0003C5.34729 14.8958 6.24739 14.0003 7.35771 14.0003C8.46803 14.0003 9.36812 14.8958 9.36812 16.0003C9.36812 17.1049 8.46803 18.0003 7.35771 18.0003Z" fill="white"/>
</svg>
