<svg width="41" height="40" viewBox="0 0 41 40" fill="none" xmlns="http://www.w3.org/2000/svg">
<path fill-rule="evenodd" clip-rule="evenodd" d="M29 10C31.2091 10 33 11.7909 33 14V22.5C33 24.7091 31.2091 26.5 29 26.5H27.5606L26.559 30.465C26.3529 31.2811 25.2924 31.493 24.7885 30.8188L21.5606 26.5H13C10.7909 26.5 9 24.7091 9 22.5V14C9 11.7909 10.7909 10 13 10H29ZM16.714 18.5709C16.714 19.5177 15.9465 20.2852 14.9997 20.2852C14.053 20.2852 13.2854 19.5177 13.2854 18.5709C13.2854 17.6242 14.053 16.8566 14.9997 16.8566C15.9465 16.8566 16.714 17.6242 16.714 18.5709ZM20.9997 20.2852C21.9465 20.2852 22.714 19.5177 22.714 18.5709C22.714 17.6242 21.9465 16.8566 20.9997 16.8566C20.053 16.8566 19.2854 17.6242 19.2854 18.5709C19.2854 19.5177 20.053 20.2852 20.9997 20.2852ZM28.714 18.5709C28.714 19.5177 27.9465 20.2852 26.9997 20.2852C26.053 20.2852 25.2854 19.5177 25.2854 18.5709C25.2854 17.6242 26.053 16.8566 26.9997 16.8566C27.9465 16.8566 28.714 17.6242 28.714 18.5709Z" fill="#FFAE0B"/>
</svg>
