<svg width="132" height="36" viewBox="0 0 132 36" fill="none" xmlns="http://www.w3.org/2000/svg">
<path d="M24.4469 7.94844C24.4469 9.79489 23.25 11.0895 21.5851 11.0895C20.8935 11.0895 20.4338 10.9484 19.005 10.3509C17.5721 9.74925 16.6486 9.56253 15.3109 9.56253C10.4695 9.56253 7.56225 13.1683 7.56225 19.2222C7.56225 25.2761 10.4695 28.7449 15.3564 28.7449C16.5271 28.7449 18.1574 28.2664 20.2475 27.3093C20.8024 27.0769 21.3574 26.94 21.8171 26.94C23.3825 26.94 24.6747 28.4171 24.6747 30.1723C24.6747 33.1806 20.7527 35.3507 15.3564 35.3507C6.0879 35.3507 0 28.8777 0 19.0355C0 9.19324 6.27427 2.95264 15.2695 2.95264C20.7569 2.95264 24.451 4.98581 24.451 7.94429L24.4469 7.94844Z" fill="black"/>
<path d="M33.7776 12.6127C36.0843 11.2268 37.8362 10.6749 40.0063 10.6749C42.1764 10.6749 44.4335 11.5048 45.9575 12.9363C47.6182 14.4633 48.2643 16.3139 48.2643 19.2682V30.3594C48.2643 31.9776 48.2146 32.3967 47.8004 33.181C47.2952 34.1975 46.0942 34.8905 44.8932 34.8905C43.6922 34.8905 42.4497 34.1975 41.9403 33.181C41.5262 32.3926 41.4765 32.0274 41.4765 30.3594V21.2101C41.4765 18.2973 40.0477 16.5421 37.6954 16.5421C35.343 16.5421 33.7734 18.3429 33.7734 20.7495V30.3594C33.7734 31.9776 33.7279 32.3967 33.3137 33.181C32.8085 34.1975 31.6033 34.8905 30.4064 34.8905C29.2096 34.8905 27.963 34.1975 27.4536 33.181C27.0353 32.3926 26.9897 32.0274 26.9897 30.3594V5.17292C26.9897 3.55468 27.0353 3.13975 27.4536 2.35552C27.9589 1.33894 29.1599 0.645996 30.4064 0.645996C31.653 0.645996 32.8085 1.33894 33.3137 2.35552C33.7279 3.1439 33.7734 3.50904 33.7734 5.17292V12.6127H33.7776Z" fill="black"/>
<path d="M58.328 25.0935C59.3426 27.8238 61.053 29.1184 63.7243 29.1184C65.3394 29.1184 65.7536 28.9773 69.3069 27.2221C69.7252 27.0396 70.276 26.8985 70.7813 26.8985C72.1687 26.8985 73.5063 28.2387 73.5063 29.6702C73.5063 32.442 68.5697 35.0312 63.3557 35.0312C56.1123 35.0312 51.0391 30.1308 51.0391 23.2014C51.0391 16.272 55.9757 10.6787 62.6641 10.6787C68.9798 10.6787 73.9163 15.8073 73.9163 22.4172C73.9163 24.3134 73.0425 25.0977 70.9635 25.0977H58.3238L58.328 25.0935ZM67.2321 20.4711C66.909 19.1766 66.6771 18.6247 66.263 17.9774C65.4761 16.8654 64.184 16.2181 62.8007 16.2181C60.5436 16.2181 59.0693 17.5127 58.1002 20.4711H67.2362H67.2321Z" fill="black"/>
<path d="M82.7957 25.0935C83.8104 27.8238 85.5208 29.1184 88.192 29.1184C89.8072 29.1184 90.2213 28.9773 93.7747 27.2221C94.193 27.0396 94.7438 26.8985 95.249 26.8985C96.6364 26.8985 97.9741 28.2387 97.9741 29.6702C97.9741 32.442 93.0375 35.0312 87.8235 35.0312C80.5801 35.0312 75.5068 30.1308 75.5068 23.2014C75.5068 16.272 80.4434 10.6787 87.1318 10.6787C93.4475 10.6787 98.3841 15.8073 98.3841 22.4172C98.3841 24.3134 97.5103 25.0977 95.4313 25.0977H82.7916L82.7957 25.0935ZM91.6998 20.4711C91.3768 19.1766 91.1449 18.6247 90.7307 17.9774C89.9439 16.8654 88.6517 16.2181 87.2685 16.2181C85.0114 16.2181 83.5371 17.5127 82.568 20.4711H91.704H91.6998Z" fill="black"/>
<path d="M108.092 30.3594C108.092 31.9776 108.046 32.3967 107.632 33.181C107.127 34.1975 105.922 34.8905 104.725 34.8905C103.528 34.8905 102.281 34.1975 101.772 33.181C101.354 32.3926 101.308 32.0274 101.308 30.3594V5.17292C101.308 3.55468 101.354 3.13975 101.772 2.35552C102.277 1.33894 103.478 0.645996 104.725 0.645996C105.971 0.645996 107.127 1.33894 107.632 2.35552C108.046 3.1439 108.092 3.50904 108.092 5.17292V18.8076L114.32 12.4301C115.662 11.0442 116.354 10.6749 117.41 10.6749C119.253 10.6749 120.736 12.1521 120.736 14.0484C120.736 15.0649 120.317 15.762 118.888 17.1023L114.693 21.1645L120.599 28.5129C121.75 29.9486 122.073 30.5959 122.073 31.5171C122.073 33.3677 120.504 34.8946 118.615 34.8946C117.369 34.8946 116.627 34.3884 115.339 32.7245L108.096 23.4342V30.3677L108.092 30.3594Z" fill="black"/>
<path d="M131.996 31.567C131.996 33.6458 130.29 35.3553 128.261 35.3553C126.231 35.3553 124.479 33.6416 124.479 31.567C124.479 29.4923 126.19 27.8243 128.31 27.8243C130.431 27.8243 132 29.5338 132 31.567H131.996ZM131.628 20.8907C131.628 22.509 131.582 22.9239 131.164 23.7081C130.659 24.7247 129.457 25.4176 128.256 25.4176C127.055 25.4176 125.813 24.7247 125.304 23.7081C124.889 22.9197 124.84 22.5546 124.84 20.8907V7.48835C124.84 5.87011 124.889 5.45518 125.304 4.67095C125.809 3.65437 127.014 2.96143 128.256 2.96143C129.499 2.96143 130.659 3.65437 131.164 4.67095C131.582 5.45933 131.628 5.82447 131.628 7.48835V20.8907Z" fill="black"/>
</svg>
