<svg width="32" height="32" viewBox="0 0 32 32" fill="none" xmlns="http://www.w3.org/2000/svg">
<path fill-rule="evenodd" clip-rule="evenodd" d="M22.4001 30.6686C28.0509 28.1996 32 22.561 32 16C32 7.16344 24.8366 0 16 0C7.16344 0 0 7.16344 0 16C0 22.5611 3.94915 28.1997 9.6001 30.6687V30.6691C11.56 31.5254 13.7245 32.0004 16 32.0004C18.2756 32.0004 20.4402 31.5254 22.4001 30.669V30.6686ZM22.4001 30.6686V24.0008H20V21.6008H12V24.0008H9.6001V30.6687C11.56 31.525 13.7245 32 16 32C18.2756 32 20.4402 31.525 22.4001 30.6686ZM15.0421 8.8292C13.0503 12.2153 12 16.0723 12 20.0008H20C20 16.0723 18.9497 12.2153 16.9579 8.8292L16.7293 8.44053C16.4021 7.88441 15.5979 7.88441 15.2707 8.44053L15.0421 8.8292Z" fill="white"/>
<circle cx="16" cy="16" r="15" stroke="white" stroke-width="2"/>
</svg>
