<svg width="32" height="32" viewBox="0 0 32 32" fill="none" xmlns="http://www.w3.org/2000/svg">
<path d="M11.2002 4.80078C10.3165 4.80078 9.6002 5.51713 9.6002 6.40078C9.6002 7.28444 10.3165 8.00078 11.2002 8.00078H20.8002C21.6839 8.00078 22.4002 7.28444 22.4002 6.40078C22.4002 5.51713 21.6839 4.80078 20.8002 4.80078H11.2002Z" fill="#111827"/>
<path d="M6.4002 11.2008C6.4002 10.3171 7.11654 9.60078 8.0002 9.60078H24.0002C24.8839 9.60078 25.6002 10.3171 25.6002 11.2008C25.6002 12.0844 24.8839 12.8008 24.0002 12.8008H8.0002C7.11654 12.8008 6.4002 12.0844 6.4002 11.2008Z" fill="#111827"/>
<path d="M3.2002 17.6008C3.2002 15.8335 4.63288 14.4008 6.4002 14.4008H25.6002C27.3675 14.4008 28.8002 15.8335 28.8002 17.6008V24.0008C28.8002 25.7681 27.3675 27.2008 25.6002 27.2008H6.4002C4.63288 27.2008 3.2002 25.7681 3.2002 24.0008V17.6008Z" fill="#111827"/>
</svg>
