<svg width="32" height="32" viewBox="0 0 32 32" fill="none" xmlns="http://www.w3.org/2000/svg">
<path fill-rule="evenodd" clip-rule="evenodd" d="M16.5 29C23.4036 29 29 23.4036 29 16.5C29 9.59644 23.4036 4 16.5 4C9.59644 4 4 9.59644 4 16.5C4 23.4036 9.59644 29 16.5 29ZM9.66019 10.5775C9.3137 9.80625 10.1043 9.01566 10.8755 9.36215L19.5635 13.2655C19.7688 13.3577 19.9331 13.522 20.0253 13.7273L23.9286 22.4153C24.2751 23.1865 23.4846 23.9771 22.7133 23.6306L14.0253 19.7273C13.82 19.6351 13.6557 19.4708 13.5635 19.2655L9.66019 10.5775ZM19.1214 16.5001C19.1214 17.7249 18.1285 18.7178 16.9037 18.7178C15.6789 18.7178 14.6859 17.7249 14.6859 16.5001C14.6859 15.2753 15.6789 14.2823 16.9037 14.2823C18.1285 14.2823 19.1214 15.2753 19.1214 16.5001Z" fill="#C4C4C4"/>
</svg>
