<svg width="32" height="32" viewBox="0 0 32 32" fill="none" xmlns="http://www.w3.org/2000/svg">
<path fill-rule="evenodd" clip-rule="evenodd" d="M12.8 6.4002C9.26539 6.4002 6.40001 9.26557 6.40001 12.8002C6.40001 16.3348 9.26539 19.2002 12.8 19.2002C16.3346 19.2002 19.2 16.3348 19.2 12.8002C19.2 9.26557 16.3346 6.4002 12.8 6.4002ZM3.20001 12.8002C3.20001 7.49826 7.49808 3.2002 12.8 3.2002C18.1019 3.2002 22.4 7.49826 22.4 12.8002C22.4 14.8735 21.7427 16.7933 20.6252 18.3627L28.3314 26.0688C28.9562 26.6937 28.9562 27.7067 28.3314 28.3316C27.7065 28.9564 26.6935 28.9564 26.0686 28.3316L18.3625 20.6254C16.7932 21.7429 14.8733 22.4002 12.8 22.4002C7.49808 22.4002 3.20001 18.1021 3.20001 12.8002Z" fill="#171717"/>
</svg>
