<svg width="32" height="32" viewBox="0 0 32 32" fill="none" xmlns="http://www.w3.org/2000/svg">
<path d="M24.2545 21.7064C24.7853 21.7064 25.2802 21.5701 25.7393 21.2976C26.1983 21.0107 26.5713 20.6162 26.8582 20.1141C27.1451 19.612 27.2885 19.0526 27.2885 18.4357C27.2885 17.8045 27.1451 17.2379 26.8582 16.7358C26.5713 16.2337 26.1983 15.8464 25.7393 15.5739C25.2802 15.287 24.7853 15.1435 24.2545 15.1435C23.2647 15.1435 22.5116 15.4519 21.9952 16.0688C21.4788 16.6713 21.2206 17.4603 21.2206 18.4357C21.2206 19.4112 21.4788 20.2002 21.9952 20.8027C22.5116 21.4052 23.2647 21.7064 24.2545 21.7064ZM18.6384 18.4357C18.6384 17.3885 18.8536 16.4346 19.284 15.5739C19.7143 14.6988 20.3383 14.0031 21.156 13.4867C21.9737 12.9702 22.9348 12.712 24.0394 12.712C24.6706 12.712 25.2802 12.8626 25.8684 13.1639C26.4565 13.4508 26.973 13.8883 27.4177 14.4765V12.6475H29.9998V23.9873H27.4177V22.3735C26.9873 22.9616 26.4709 23.4063 25.8684 23.7076C25.2802 24.0088 24.6706 24.1594 24.0394 24.1594C22.9348 24.1594 21.9737 23.9012 21.156 23.3848C20.3383 22.8684 19.7143 22.1798 19.284 21.3191C18.8536 20.444 18.6384 19.4829 18.6384 18.4357Z" fill="#171717"/>
<path d="M18.1813 24.0092H15.4486L13.7056 19.8347H6.47568L4.75427 24.0092H2L8.67049 8H11.5108L18.1813 24.0092ZM12.6513 17.2956L10.1552 11.1416L7.53005 17.2956H12.6513Z" fill="#171717"/>
</svg>
