<svg width="32" height="32" viewBox="0 0 32 32" fill="none" xmlns="http://www.w3.org/2000/svg">
<path fill-rule="evenodd" clip-rule="evenodd" d="M6.40001 3.2002C4.6327 3.2002 3.20001 4.63288 3.20001 6.4002V24.0002C3.20001 26.6512 5.34905 28.8002 8.00001 28.8002C10.651 28.8002 12.8 26.6512 12.8 24.0002V6.4002C12.8 4.63288 11.3673 3.2002 9.60001 3.2002H6.40001ZM8.00001 25.6002C8.88367 25.6002 9.60001 24.8839 9.60001 24.0002C9.60001 23.1165 8.88367 22.4002 8.00001 22.4002C7.11636 22.4002 6.40001 23.1165 6.40001 24.0002C6.40001 24.8839 7.11636 25.6002 8.00001 25.6002Z" fill="#171717"/>
<path d="M16 22.7883L23.8392 14.9491C25.0889 13.6994 25.0889 11.6733 23.8392 10.4236L21.5764 8.16089C20.3268 6.91121 18.3006 6.91121 17.051 8.16089L16 9.21184V22.7883Z" fill="#171717"/>
<path d="M25.6001 28.8002H14.5137L24.1137 19.2002H25.6001C27.3674 19.2002 28.8001 20.6329 28.8001 22.4002V25.6002C28.8001 27.3675 27.3674 28.8002 25.6001 28.8002Z" fill="#171717"/>
</svg>
