<svg width="48" height="48" viewBox="0 0 48 48" fill="none" xmlns="http://www.w3.org/2000/svg">
<path fill-rule="evenodd" clip-rule="evenodd" d="M26.3828 13.0737C25.7763 10.5757 22.2237 10.5757 21.6173 13.0737C21.2255 14.6874 19.3767 15.4532 17.9587 14.5891C15.7635 13.2516 13.2514 15.7637 14.589 17.9589C15.453 19.3769 14.6872 21.2257 13.0735 21.6174C10.5755 22.2239 10.5755 25.7765 13.0735 26.3829C14.6872 26.7747 15.453 28.6235 14.589 30.0415C13.2514 32.2367 15.7635 34.7488 17.9587 33.4113C19.3767 32.5472 21.2255 33.313 21.6173 34.9267C22.2237 37.4247 25.7763 37.4247 26.3828 34.9267C26.7745 33.313 28.6233 32.5472 30.0414 33.4113C32.2365 34.7488 34.7486 32.2367 33.4111 30.0415C32.547 28.6235 33.3128 26.7747 34.9265 26.3829C37.4245 25.7765 37.4245 22.2239 34.9265 21.6174C33.3128 21.2257 32.547 19.3769 33.4111 17.9589C34.7486 15.7637 32.2365 13.2516 30.0414 14.5891C28.6233 15.4532 26.7745 14.6874 26.3828 13.0737ZM24 28.8002C26.651 28.8002 28.8 26.6512 28.8 24.0002C28.8 21.3492 26.651 19.2002 24 19.2002C21.349 19.2002 19.2 21.3492 19.2 24.0002C19.2 26.6512 21.349 28.8002 24 28.8002Z" fill="#171717"/>
</svg>
