<svg width="128" height="128" viewBox="0 0 128 128" fill="none" xmlns="http://www.w3.org/2000/svg">
<rect width="128" height="128" rx="64" fill="#F5F5F4"/>
<path d="M102.882 80.833C105.392 80.3693 112.828 78.5807 112.828 78.5807C113.836 78.3083 114.197 77.0717 113.497 76.2989C110.479 72.994 104.082 65.8984 103.949 65.1624L109.419 52.0017C109.861 50.9344 108.896 49.823 107.777 50.1174C107.777 50.1174 98.3616 52.2004 95.2254 52.8776C86.7446 54.7104 82.7398 62.9836 81.1349 67.5766C80.4576 69.5272 80.9361 71.6765 82.3717 73.1559C85.8096 76.7111 93.1788 82.629 102.882 80.833Z" fill="#8A8A8A"/>
<path d="M91.8386 49.3241C85.4118 32.807 70.4084 26.948 56.6859 28.3245C55.2283 28.4717 53.7927 28.6998 52.3719 28.9943C49.9793 26.0869 46.4015 23.9081 42.4335 24.8061C44.9806 25.7924 45.0101 28.9354 45.2015 30.5989C42.831 29.5389 40.4752 29.2445 36.5145 29.9953C38.2519 30.2603 39.8495 31.5263 40.5194 33.3591C26.0755 41.176 16.1591 56.7803 17.8376 73.5109C17.926 74.3573 18.0437 75.1891 18.1763 76.0135C13.1702 76.352 7.56787 77.6181 1.92871 79.6864C8.92244 107.45 34.0557 128.001 63.9889 128.001C78.8892 128.001 92.5969 122.908 103.478 114.377C104.273 103.063 103.132 90.683 99.4876 77.3016C97.5809 70.309 94.4594 56.0958 91.8313 49.3462L91.8386 49.3241Z" fill="#C4C4C4"/>
<path d="M70.1952 71.4636C74.9888 71.4636 78.8748 67.5783 78.8748 62.7855C78.8748 57.9927 74.9888 54.1074 70.1952 54.1074C65.4016 54.1074 61.5156 57.9927 61.5156 62.7855C61.5156 67.5783 65.4016 71.4636 70.1952 71.4636Z" fill="#F5F5F4"/>
</svg>
