<svg width="93" height="93" viewBox="0 0 93 93" fill="none" xmlns="http://www.w3.org/2000/svg">
<path d="M92.5556 46.3661C92.5556 20.7588 71.8363 0 46.2778 0C20.7193 0 0 20.7588 0 46.3661C0 71.9734 20.7193 92.7322 46.2778 92.7322C71.8363 92.7322 92.5556 71.9734 92.5556 46.3661Z" fill="#FFAE0B"/>
<path d="M74.3925 58.5716C76.2078 58.2356 81.5842 56.9395 81.5842 56.9395C82.3135 56.7422 82.5744 55.8462 82.0687 55.2862C79.8861 52.8915 75.2602 47.7501 75.1644 47.2167L79.1196 37.6805C79.439 36.9072 78.7416 36.1019 77.9325 36.3152C77.9325 36.3152 71.124 37.8245 68.8563 38.3152C62.7239 39.6432 59.8281 45.638 58.6676 48.9661C58.1779 50.3794 58.5239 51.9368 59.5619 53.0088C62.0479 55.5849 67.3765 59.8729 74.3925 58.5716Z" fill="#FF6833"/>
<path d="M66.4078 35.7393C61.7606 23.7711 50.9118 19.5257 40.9892 20.523C39.9352 20.6297 38.8972 20.795 37.8698 21.0084C36.1397 18.9017 33.5526 17.323 30.6834 17.9737C32.5252 18.6883 32.5465 20.9657 32.6849 22.1711C30.9708 21.403 29.2674 21.1897 26.4035 21.7337C27.6597 21.9257 28.8149 22.8431 29.2993 24.1711C18.8551 29.8352 11.6846 41.1421 12.8983 53.2649C12.9622 53.8783 13.0474 54.4809 13.1432 55.0783C9.5234 55.3236 5.47239 56.241 1.39478 57.7397C6.45187 77.8573 24.6255 92.7483 46.2699 92.7483C57.0442 92.7483 66.9561 89.0575 74.8239 82.8761C75.3988 74.6786 74.5737 65.7078 71.9387 56.0116C70.5599 50.9449 68.3029 40.646 66.4025 35.7553L66.4078 35.7393Z" fill="#FFEC00"/>
<path d="M50.7574 51.7822C54.2236 51.7822 57.0335 48.9669 57.0335 45.4941C57.0335 42.0213 54.2236 39.206 50.7574 39.206C47.2912 39.206 44.4813 42.0213 44.4813 45.4941C44.4813 48.9669 47.2912 51.7822 50.7574 51.7822Z" fill="#442300"/>
</svg>
