<svg width="20" height="20" viewBox="0 0 20 20" fill="none" xmlns="http://www.w3.org/2000/svg">
<path d="M0 10C0 4.47715 4.47715 0 10 0C15.5228 0 20 4.47715 20 10C20 15.5228 15.5228 20 10 20C4.47715 20 0 15.5228 0 10Z" fill="#FFAE0B"/>
<path d="M2.44345 9.54367C2.23528 9.39576 2.27805 9.07557 2.51718 9.00005C2.51718 9.00005 4.48208 8.29094 5.13455 8.05165C6.89916 7.40483 9.46052 9.15474 9.46052 9.15474C8.12821 12.7279 5.89239 11.9867 2.44345 9.54367Z" fill="#FF6833"/>
<ellipse cx="9.70328" cy="3.679" rx="1.90519" ry="2.08663" transform="rotate(-11.5141 9.70328 3.679)" fill="#F93C00"/>
<path d="M14.0876 5.2191C14.0876 6.39398 13.1352 7.34641 11.9603 7.34641C10.7854 7.34641 9.83301 6.39398 9.83301 5.2191C9.83301 4.04422 10.7854 3.0918 11.9603 3.0918C13.1352 3.0918 14.0876 4.04422 14.0876 5.2191Z" fill="#F93C00"/>
<path d="M6.40497 7.16984C7.1283 5.31779 8.81688 4.66082 10.3613 4.81516C13.9328 5.17207 14.9596 7.63703 14.7336 9.8819C16.5002 13.5 17.5983 17.5573 10.3613 17.5573C5.91206 17.5573 5.09503 15.6909 5.09503 14.4642C5.00555 13.1956 5.13397 11.8074 5.5441 10.3069C5.7587 9.52287 6.11001 7.92915 6.4058 7.17232L6.40497 7.16984Z" fill="white"/>
<path d="M9.5 11C8.67157 11 8 10.3284 8 9.5C8 8.67157 8.67157 8 9.5 8C10.3284 8 11 8.67157 11 9.5C11 10.3284 10.3284 11 9.5 11Z" fill="#442300"/>
</svg>
