<svg width="16" height="16" viewBox="0 0 16 16" fill="none" xmlns="http://www.w3.org/2000/svg">
<path d="M7.76605 13.169C7.37605 13.169 7.10305 12.896 7.10305 12.506C7.10305 12.129 7.37605 11.869 7.76605 11.869C8.14305 11.869 8.40305 12.129 8.40305 12.506C8.40305 12.896 8.14305 13.169 7.76605 13.169ZM5.14005 5.538C5.59505 4.329 6.76505 3.484 7.98705 3.484C9.71605 3.484 10.8731 4.628 10.7951 6.266C10.7561 7.111 10.3141 7.943 9.11805 8.84C8.42905 9.347 8.23405 9.737 8.24705 10.751H7.28505C7.27205 9.49 7.62305 8.736 8.54605 8.06C9.53405 7.319 9.79405 6.812 9.83305 6.214C9.88505 5.174 9.11805 4.446 7.98705 4.446C7.16805 4.446 6.37505 5.031 6.05005 5.876L5.14005 5.538Z" fill="#8A8A8A"/>
<circle cx="8" cy="8" r="7" stroke="#8A8A8A"/>
</svg>
