<svg width="48" height="48" viewBox="0 0 48 48" fill="none" xmlns="http://www.w3.org/2000/svg">
<path d="M24.0001 11.2002C18.6982 11.2002 14.4001 15.4983 14.4001 20.8002V26.5375L13.2687 27.6688C12.8111 28.1264 12.6742 28.8146 12.9219 29.4125C13.1695 30.0104 13.753 30.4002 14.4001 30.4002H33.6001C34.2472 30.4002 34.8307 30.0104 35.0783 29.4125C35.326 28.8146 35.1891 28.1264 34.7315 27.6688L33.6001 26.5375V20.8002C33.6001 15.4983 29.302 11.2002 24.0001 11.2002Z" fill="#171717"/>
<path d="M24 36.8002C21.3491 36.8002 19.2 34.6512 19.2 32.0002H28.8C28.8 34.6512 26.651 36.8002 24 36.8002Z" fill="#171717"/>
</svg>
