<svg width="32" height="32" viewBox="0 0 32 32" fill="none" xmlns="http://www.w3.org/2000/svg">
<path fill-rule="evenodd" clip-rule="evenodd" d="M23.8848 9.73834C22.3919 5.90457 18.9068 4.54464 15.7193 4.86412C15.3807 4.89829 15.0473 4.95125 14.7172 5.01959C14.1615 4.34475 13.3304 3.83905 12.4087 4.04748C12.9408 4.25338 12.9999 4.86421 13.0387 5.26594C13.0431 5.31087 13.0472 5.35319 13.0516 5.39203C12.501 5.14601 11.9538 5.07768 11.0338 5.25194C11.4374 5.31344 11.8084 5.6073 11.9641 6.0327C8.60895 7.84708 6.30552 11.469 6.69541 15.3523C6.71593 15.5488 6.74329 15.7418 6.77407 15.9332C5.61124 16.0118 4.30989 16.3056 3 16.7857C4.62454 23.23 10.4626 28 17.4157 28C20.8768 28 24.0609 26.8178 26.5884 24.8377C26.7553 22.4638 26.5547 19.8876 25.8893 17.1203C26.0722 17.1092 26.2591 17.0868 26.45 17.0515C27.0331 16.9438 28.7602 16.5287 28.7602 16.5287C28.9945 16.4655 29.0783 16.1784 28.9158 15.9991C28.2147 15.232 26.7287 13.585 26.6979 13.4142L27.9685 10.3594C28.0711 10.1117 27.8471 9.85374 27.5871 9.92208C27.5871 9.92208 25.4 10.4056 24.6715 10.5627C24.5103 10.5976 24.3561 10.6424 24.2086 10.6959C24.098 10.3382 23.9888 10.0149 23.8831 9.74346L23.8848 9.73834ZM20.8736 12.863C20.8736 13.9754 19.9709 14.8772 18.8575 14.8772C17.744 14.8772 16.8413 13.9754 16.8413 12.863C16.8413 11.7505 17.744 10.8487 18.8575 10.8487C19.9709 10.8487 20.8736 11.7505 20.8736 12.863Z" fill="#C4C4C4"/>
</svg>
