<svg width="161" height="160" viewBox="0 0 161 160" fill="none" xmlns="http://www.w3.org/2000/svg">
<path fill-rule="evenodd" clip-rule="evenodd" d="M80.5 144C115.846 144 144.5 115.346 144.5 80C144.5 44.6538 115.846 16 80.5 16C45.1538 16 16.5 44.6538 16.5 80C16.5 115.346 45.1538 144 80.5 144ZM110.157 69.6569C113.281 66.5327 113.281 61.4673 110.157 58.3431C107.033 55.219 101.967 55.219 98.8431 58.3431L72.5 84.6863L62.1569 74.3431C59.0327 71.2189 53.9673 71.2189 50.8431 74.3431C47.719 77.4673 47.719 82.5327 50.8431 85.6569L66.8431 101.657C69.9673 104.781 75.0327 104.781 78.1569 101.657L110.157 69.6569Z" fill="#FFAE0B"/>
</svg>
